<?xml version="1.0" standalone="no"?>
<!DOCTYPE svg PUBLIC "-//W3C//DTD SVG 20010904//EN"
 "http://www.w3.org/TR/2001/REC-SVG-20010904/DTD/svg10.dtd">
<svg version="1.0" xmlns="http://www.w3.org/2000/svg"
 width="100px" height="100px" viewBox="0 0 350.000000 231.000000"
 preserveAspectRatio="xMidYMid meet" fill="#006400">

<g transform="translate(0.000000,231.000000) scale(0.100000,-0.100000)"
fill="#000000" stroke="none">
<path d="M2225 2261 c-14 -44 -72 -106 -182 -194 -141 -112 -198 -172 -213
-224 -11 -37 -10 -43 26 -108 35 -64 39 -77 42 -162 3 -51 7 -93 9 -93 3 0 23
14 44 31 56 44 128 149 166 243 l33 81 0 -45 c-1 -121 -46 -215 -166 -340 -51
-52 -117 -134 -148 -182 -46 -70 -63 -89 -92 -98 -19 -7 -37 -10 -39 -8 -2 2
9 24 24 48 69 113 111 242 111 341 0 85 -23 145 -90 234 -74 98 -121 189 -128
251 l-5 47 -18 -24 c-11 -13 -39 -58 -63 -99 -113 -195 -135 -390 -61 -542 43
-89 127 -168 145 -138 37 59 38 310 1 413 -11 31 -18 57 -15 57 11 0 64 -127
75 -179 18 -89 7 -249 -26 -359 -38 -124 -48 -129 -122 -62 -140 128 -326 218
-536 260 -33 7 -57 17 -57 24 0 17 73 122 118 169 55 58 154 125 230 157 78
33 103 63 84 104 -20 44 -53 43 -155 -6 -359 -174 -543 -560 -452 -948 22 -94
104 -253 173 -336 228 -271 623 -368 949 -232 314 130 513 426 513 764 0 183
-23 254 -81 254 -41 0 -61 -33 -53 -90 l6 -45 -181 0 c-215 -1 -211 -9 -50
130 166 143 290 273 325 340 35 67 64 171 64 231 0 56 -24 141 -55 197 -28 49
-121 157 -135 157 -5 0 -11 -9 -15 -19z m-1259 -972 c95 -16 213 -57 294 -101
74 -41 210 -136 210 -148 0 -3 -20 -23 -45 -44 l-46 -38 -44 37 c-99 81 -269
153 -410 175 -38 6 -71 13 -73 15 -2 2 2 29 9 59 14 63 12 62 105 45z m1327
-198 c6 -6 7 -32 2 -66 l-7 -56 -30 6 c-17 4 -81 7 -143 7 -250 -1 -460 -92
-633 -277 -64 -68 -158 -208 -175 -260 -4 -12 -97 23 -103 40 -3 7 9 42 27 76
149 297 427 492 774 543 51 8 277 -2 288 -13z m-1265 -76 c67 -21 174 -78 231
-123 26 -21 24 -27 -22 -82 -24 -28 -32 -32 -45 -22 -96 68 -238 132 -291 132
-25 0 -37 21 -46 84 l-8 48 54 -7 c30 -4 87 -18 127 -30z m1218 -167 c3 -3 -7
-31 -23 -62 l-27 -56 -81 0 c-106 0 -190 -21 -287 -72 -95 -49 -192 -140 -239
-223 l-32 -57 -56 7 c-31 4 -59 9 -64 12 -4 2 10 37 30 76 46 88 181 228 269
279 131 76 260 109 407 104 53 -2 100 -5 103 -8z m-1247 -88 c24 -11 65 -36
92 -56 l49 -35 -26 -51 -26 -50 -30 28 c-33 31 -128 162 -128 176 0 13 21 9
69 -12z m1091 -159 c0 -16 -111 -99 -180 -135 -66 -35 -177 -72 -187 -63 -9
10 72 90 124 123 81 53 243 102 243 75z"/>
</g>
</svg>
