<?xml version="1.0" standalone="no"?>
<!DOCTYPE svg PUBLIC "-//W3C//DTD SVG 20010904//EN"
 "http://www.w3.org/TR/2001/REC-SVG-20010904/DTD/svg10.dtd">
<svg version="1.0" xmlns="http://www.w3.org/2000/svg"
 width="170.000000pt" height="212.000000pt" viewBox="0 0 170.000000 212.000000"
 preserveAspectRatio="xMidYMid meet" fill="#2c5f2d">

<g transform="translate(0.000000,212.000000) scale(0.100000,-0.100000)"
fill="#2c5f2d" stroke="none">
<path d="M350 1884 c-84 -91 -116 -208 -98 -359 6 -44 12 -82 14 -84 2 -3 20
3 39 12 20 9 42 17 49 17 15 0 36 -42 36 -71 0 -11 6 -30 14 -42 7 -12 16 -45
19 -73 5 -43 3 -55 -14 -70 -15 -13 -19 -30 -19 -82 0 -59 3 -66 31 -93 l31
-28 29 -283 c16 -156 29 -291 29 -300 0 -13 9 -18 28 -19 l27 -1 -30 -8 -30
-8 33 -1 c32 -1 32 0 27 37 -14 97 -55 536 -50 540 2 3 15 -8 27 -24 55 -71
78 -86 132 -82 l51 3 6 -155 c13 -328 21 -424 36 -442 19 -21 11 -33 -36 -58
-21 -10 -41 -26 -45 -35 -12 -31 -26 -3 -26 51 0 49 -2 54 -22 54 -19 0 -20
-2 -8 -10 13 -8 12 -10 -4 -10 -24 0 -45 28 -46 62 0 43 -10 58 -39 58 -25 0
-26 -2 -26 -57 l0 -58 -34 -3 c-33 -3 -33 -4 -27 -40 3 -20 9 -47 12 -59 6
-23 6 -23 -37 -8 -24 9 -50 21 -59 29 -34 29 -43 28 -21 -2 l22 -32 -26 0
c-15 0 -24 -4 -20 -10 3 -5 19 -10 35 -10 16 0 32 -5 35 -10 4 -6 -29 -10 -91
-10 -67 0 -95 -3 -88 -10 15 -15 786 -23 1054 -12 210 9 212 9 80 11 -148 3
-155 6 -35 17 81 7 83 22 4 23 -28 1 -38 6 -47 26 -6 13 -24 31 -40 39 -33 17
-46 57 -26 78 11 10 12 45 5 168 -4 85 -6 157 -3 160 2 3 10 -4 18 -15 7 -11
20 -29 28 -40 13 -19 14 -18 10 10 l-5 30 17 -29 c11 -20 15 -43 11 -75 -5
-43 -4 -44 9 -21 7 14 14 43 14 65 1 37 2 39 15 21 8 -11 15 -30 15 -43 0 -13
5 -23 10 -23 13 0 13 66 0 91 -6 10 -24 26 -41 35 -38 19 -32 29 7 13 16 -7
33 -11 38 -10 5 1 24 -13 43 -30 18 -18 33 -28 33 -22 0 23 -62 72 -108 87
l-47 16 40 -6 c22 -3 65 -7 95 -10 l55 -4 -55 23 c-30 13 -64 28 -75 34 -22
13 -21 14 50 31 l40 10 -47 1 c-56 1 -92 -13 -113 -46 -16 -24 -54 -32 -56
-10 -1 6 -2 23 -4 37 -1 14 -5 35 -8 46 -8 21 0 27 64 47 9 3 29 21 44 40 39
52 37 116 -6 193 -36 66 -97 135 -147 166 -18 11 -39 33 -47 49 -15 28 -15 29
22 54 122 82 153 113 153 150 0 17 9 29 30 40 77 40 78 108 1 177 -38 34 -50
53 -55 85 -9 50 -33 73 -111 103 -47 18 -83 23 -165 25 -58 2 -113 -1 -122 -6
-10 -5 -28 -30 -41 -55 -19 -37 -35 -52 -77 -73 -30 -14 -58 -33 -63 -42 -17
-27 3 -72 50 -117 44 -40 45 -43 28 -56 -17 -12 -18 -17 -7 -40 7 -15 12 -40
12 -57 0 -58 74 -159 116 -159 29 0 12 -21 -43 -56 -32 -20 -89 -68 -126 -105
-38 -38 -75 -69 -82 -69 -22 0 -65 59 -65 89 0 33 -16 51 -46 51 -24 0 -26 7
-39 102 -4 29 -2 49 5 53 6 4 8 20 5 39 -5 23 -1 38 12 54 16 19 22 20 60 10
23 -7 45 -9 49 -5 4 3 1 54 -5 113 -16 150 -68 255 -165 332 -16 12 -32 22
-36 22 -4 0 -26 -21 -50 -46z m113 -25 c60 -69 97 -143 102 -210 l5 -54 -14
40 -14 40 -2 -70 c-1 -49 -4 -64 -10 -50 -8 19 -9 19 -9 1 -2 -35 -12 -10 -22
54 -5 34 -16 76 -24 94 -13 30 -13 28 -8 -31 6 -60 5 -62 -16 -56 -21 5 -22 4
-15 -60 8 -81 2 -102 -25 -88 -16 9 -18 18 -13 53 5 38 4 42 -10 30 -17 -14
-15 -20 -35 83 -8 39 -8 39 -13 -25 -5 -62 -6 -64 -18 -37 -14 33 -32 27 -33
-11 l-1 -27 -10 29 c-14 39 5 156 37 221 26 53 81 125 95 125 5 0 29 -23 53
-51z m490 10 c27 -7 48 -7 72 1 30 10 38 8 70 -13 35 -24 35 -25 13 -31 -13
-3 -34 -6 -48 -7 -23 0 -22 -2 10 -15 l35 -14 -34 5 c-18 3 -75 5 -127 5 l-93
0 4 32 c7 48 28 57 98 37z m-53 -128 c0 -10 -69 -25 -77 -17 -6 6 7 11 42 19
33 8 35 7 35 -2z m107 -47 c-15 -13 -25 -24 -21 -24 4 0 16 8 26 17 18 16 21
16 47 0 16 -9 42 -17 58 -17 17 0 38 -9 47 -19 16 -18 16 -22 2 -50 -16 -30
-21 -77 -10 -104 5 -13 9 -13 35 1 22 13 33 14 46 6 46 -28 13 -93 -49 -97
-26 -2 -47 -12 -70 -34 -49 -46 -94 -65 -157 -66 -111 -1 -181 61 -181 161 0
33 -4 51 -10 47 -5 -3 -10 -1 -10 4 0 6 7 11 15 11 11 0 15 12 15 49 0 63 6
79 39 95 22 12 30 12 51 0 26 -14 105 -20 82 -6 -9 6 -1 16 25 33 46 31 59 26
20 -7z m233 -92 c0 -15 -38 -44 -51 -40 -9 3 -6 11 9 26 22 22 42 29 42 14z
m-794 -204 c1 -10 -1 -20 -6 -23 -15 -9 -40 7 -40 27 0 25 42 21 46 -4z m592
-127 c14 -8 4 -21 -28 -35 -16 -7 16 0 50 10 11 4 20 2 20 -2 -1 -12 -70 -64
-86 -64 -17 0 -27 32 -12 42 10 6 9 8 -4 8 -9 0 -23 -7 -32 -15 -19 -20 -26
-19 -26 3 0 33 32 62 70 62 19 0 41 -4 48 -9z m-136 -36 c5 -26 -6 -43 -17
-26 -3 6 -12 8 -20 4 -20 -7 -19 6 2 29 22 24 30 23 35 -7z m-451 -40 c0 -5
-9 -11 -21 -13 -20 -3 -27 8 -13 22 10 9 34 3 34 -9z m89 -15 c0 -4 -7 -13
-15 -20 -22 -18 -44 2 -26 24 12 14 41 12 41 -4z m360 -26 l12 -36 27 26 c33
32 51 33 51 4 0 -48 -23 -57 -122 -49 -21 1 -24 40 -8 72 16 28 27 23 40 -17z
m297 1 c42 -35 101 -127 116 -177 8 -29 -9 -74 -36 -97 -12 -10 -20 -7 -41 12
-15 14 -40 27 -56 31 -33 6 -37 17 -15 39 14 15 44 12 100 -8 11 -4 7 2 -10
14 -16 11 -41 21 -55 22 -22 0 -21 2 10 14 19 7 27 14 18 14 -10 1 -18 6 -18
13 0 9 -3 9 -12 0 -20 -20 -46 -14 -63 16 -16 26 -16 26 -10 -28 4 -44 1 -60
-13 -79 l-19 -23 -13 31 c-27 67 15 241 59 241 10 0 36 -16 58 -35z m-427 5
c0 -25 -45 -99 -64 -104 -41 -11 -39 13 5 63 43 49 59 60 59 41z m-310 -9 c0
-5 -6 -12 -12 -14 -8 -3 -6 -6 5 -6 39 -2 11 -41 -29 -41 -17 0 -19 30 -1 31
10 0 10 2 0 6 -23 9 -14 33 12 33 14 0 25 -4 25 -9z m345 -51 c-3 -5 -11 -10
-16 -10 -6 0 -7 5 -4 10 3 6 11 10 16 10 6 0 7 -4 4 -10z m215 -15 c-10 -12
-9 -15 6 -15 14 0 15 -3 6 -12 -8 -8 -15 -8 -26 1 -18 15 -10 41 11 41 13 0
13 -3 3 -15z m-545 -4 c6 -10 -25 -31 -44 -31 -18 0 -12 28 7 33 28 8 31 7 37
-2z m330 -11 c3 -5 1 -10 -4 -10 -6 0 -11 5 -11 10 0 6 2 10 4 10 3 0 8 -4 11
-10z m-187 -20 c24 -23 28 -56 10 -95 -15 -34 -41 -32 -72 6 -30 35 -32 45
-12 56 7 4 18 18 25 31 14 27 21 28 49 2z m67 -20 c10 -11 16 -22 13 -25 -2
-3 -14 6 -26 20 -26 30 -13 34 13 5z m295 -43 c0 -40 -21 -72 -61 -92 -26 -14
-32 -14 -59 0 -36 19 -50 43 -50 89 l0 36 85 0 85 0 0 -33z m-289 -21 c1 -19
2 -18 9 4 8 25 8 25 9 -4 1 -16 -6 -38 -16 -48 -10 -12 -12 -18 -4 -18 7 0 9
-4 6 -10 -8 -12 -72 -13 -79 -1 -3 4 3 16 14 26 11 10 23 36 26 57 5 31 9 36
20 27 8 -6 14 -21 15 -33z m513 -82 c22 -22 20 -27 -15 -48 -17 -10 -40 -34
-51 -52 -22 -37 -38 -42 -62 -19 -8 8 -20 15 -27 15 -7 0 -9 10 -5 30 5 27 3
30 -20 30 -22 0 -25 2 -14 15 7 8 27 15 44 15 17 0 42 7 56 14 34 19 75 19 94
0z m-415 -118 c8 -10 8 -16 -3 -25 -11 -9 -13 -7 -13 14 0 29 1 30 16 11z
m191 -59 c79 3 83 2 60 -12 l-25 -14 25 -1 25 0 -25 -21 -25 -20 25 7 c14 3
42 15 64 26 27 14 37 16 34 6 -3 -7 -33 -28 -69 -47 l-64 -34 49 7 c27 3 60
13 72 21 28 18 38 19 28 4 -10 -17 -86 -48 -119 -50 l-30 -1 30 -9 c30 -9 86
3 113 24 24 19 25 -3 1 -30 -22 -25 -22 -26 -1 -9 32 28 38 13 12 -30 l-23
-36 22 12 c32 16 37 5 18 -35 -21 -44 -21 -46 -2 -39 9 4 15 1 15 -7 0 -24
-16 -40 -32 -34 -9 4 -18 2 -21 -3 -3 -4 10 -14 29 -21 28 -10 34 -17 34 -40
0 -24 -5 -30 -31 -35 -51 -10 -94 -7 -115 8 -19 14 -19 15 3 44 21 28 21 30 3
25 -24 -6 -26 9 -4 28 14 11 13 14 -8 25 -13 7 -23 16 -24 21 -2 33 -49 102
-82 121 -37 21 -38 21 -50 1 -10 -15 -10 -19 0 -19 7 0 -2 -10 -19 -21 -36
-23 -45 -36 -14 -19 32 17 36 11 10 -16 l-24 -27 38 7 38 7 -17 -25 c-9 -14
-13 -26 -9 -26 5 0 0 -9 -10 -20 -18 -19 -17 -20 3 -20 12 0 22 -4 22 -10 0
-5 -19 -10 -42 -11 -45 0 -46 0 25 -28 15 -6 3 -7 -38 -4 -67 6 -67 -6 0 -27
50 -17 25 -28 -43 -20 -53 6 -66 28 -36 61 10 11 12 19 6 19 -7 0 -12 7 -12
15 0 8 7 15 16 15 13 0 13 2 1 14 -9 9 -18 59 -25 143 -17 180 -22 163 48 163
l60 0 1 38 1 37 11 -40 12 -40 85 2z m187 21 c-3 -8 -6 -5 -6 6 -1 11 2 17 5
13 3 -3 4 -12 1 -19z m-168 -305 c12 -34 21 -76 21 -92 0 -16 7 -37 16 -45 18
-18 19 -32 7 -101 l-8 -50 -54 -3 c-53 -3 -53 -3 -47 22 3 14 -1 43 -10 66
-16 39 -16 42 2 55 16 11 19 27 20 97 0 87 10 136 24 122 5 -5 18 -37 29 -71z
m-442 -79 c-3 -3 -12 -4 -19 -1 -8 3 -5 6 6 6 11 1 17 -2 13 -5z m-70 -100
c-3 -3 -12 -4 -19 -1 -8 3 -5 6 6 6 11 1 17 -2 13 -5z m153 -54 c0 -34 -4 -41
-26 -46 -18 -5 -29 -1 -39 12 -14 18 -14 18 -15 1 0 -14 -7 -18 -27 -15 -23 3
-29 9 -34 41 l-6 37 46 1 c25 0 55 4 66 8 29 12 35 5 35 -39z m537 4 c-3 -3
-12 -4 -19 -1 -8 3 -5 6 6 6 11 1 17 -2 13 -5z m11 -61 c-16 -2 -40 -2 -55 0
-16 2 -3 4 27 4 30 0 43 -2 28 -4z m-323 -33 c5 -9 -314 -3 -324 6 -2 2 68 4
157 4 94 0 163 -4 167 -10z"/>
<path d="M838 1613 c6 -2 18 -2 25 0 6 3 1 5 -13 5 -14 0 -19 -2 -12 -5z"/>
<path d="M1025 1610 c3 -5 17 -10 31 -10 14 0 22 4 19 10 -3 6 -17 10 -31 10
-14 0 -22 -4 -19 -10z"/>
<path d="M820 1546 c-16 -21 -6 -44 23 -55 14 -5 27 -17 30 -25 7 -18 67 -23
67 -5 0 5 -4 8 -9 5 -15 -10 -42 5 -33 18 4 6 5 27 2 46 l-6 35 -8 -30 -9 -30
-6 25 c-8 29 -33 37 -51 16z"/>
<path d="M1003 1532 c-9 -22 11 -47 39 -50 19 -2 27 2 31 18 3 12 4 27 1 33
-7 18 -65 17 -71 -1z"/>
<path d="M1192 1473 c-12 -23 -5 -43 14 -43 11 0 13 7 8 27 -6 22 -4 25 10 20
9 -4 16 -2 16 3 0 17 -39 11 -48 -7z"/>
<path d="M870 1410 c0 -7 24 -20 36 -20 13 0 1 19 -16 23 -11 3 -20 2 -20 -3z"/>
<path d="M962 1412 c-13 -4 -22 -11 -20 -17 3 -13 29 -7 48 11 15 15 9 16 -28
6z"/>
<path d="M785 680 c3 -5 11 -10 16 -10 6 0 7 5 4 10 -3 6 -11 10 -16 10 -6 0
-7 -4 -4 -10z"/>
<path d="M780 640 c0 -5 5 -10 11 -10 5 0 7 5 4 10 -3 6 -8 10 -11 10 -2 0 -4
-4 -4 -10z"/>
<path d="M780 592 c6 -13 14 -21 18 -18 3 4 -2 14 -12 24 -18 16 -18 16 -6 -6z"/>
<path d="M1085 337 c-27 -21 -3 -30 53 -22 43 6 45 8 27 21 -24 18 -56 18 -80
1z"/>
<path d="M1368 572 c24 -54 34 -64 22 -21 -5 18 -17 40 -25 49 -13 12 -12 6 3
-28z"/>
</g>
</svg>
